<?xml version="1.0" encoding="UTF-8" standalone="no"?>
<svg width="49px" height="49px" viewBox="0 0 49 49" version="1.1" xmlns="http://www.w3.org/2000/svg" xmlns:xlink="http://www.w3.org/1999/xlink">
    <g id="Page-1" stroke="none" stroke-width="1" fill="none" fill-rule="evenodd">
        <g id="Style-Guide" transform="translate(-127.000000, -1176.000000)">
            <g id="Icons" transform="translate(124.000000, 697.000000)">
                <g id="Tick-Box-" transform="translate(3.000000, 479.000000)">
                    <path d="M49,24.5 C49,38.0314565 38.0314565,49 24.5,49 C10.9685435,49 0,38.0314565 0,24.5 C0,10.9685435 10.9685435,0 24.5,0 C38.0314565,0 49,10.9685435 49,24.5 Z" id="Stroke-1-Copy-2" fill="#04AF5D"></path>
                    <path d="M38.6259639,16.5924188 C38.0461589,15.9026345 37.001047,15.8003206 36.2915174,16.3639903 L21.4055764,28.1892997 L14.0100771,23.0032188 C13.3650366,22.552312 12.46816,22.5264796 11.7881879,23.0032188 C10.9375883,23.599687 10.7454645,24.7535846 11.3590068,25.580513 L18.8124269,35.6261411 C18.9800688,35.8494902 19.188912,36.0699367 19.4194009,36.2529407 C20.8756311,37.4097408 23.0206408,37.1998885 24.2104055,35.7843286 L24.343265,35.6261411 L38.6259639,18.6336173 C39.115305,18.0519519 39.1339651,17.1967238 38.6259639,16.5924188" id="Fill-1" fill="#FFFFFF"></path>
                </g>
            </g>
        </g>
    </g>
</svg>